<svg xmlns="http://www.w3.org/2000/svg" viewBox="0 0 120 120" role="img" aria-label="Ngọc Hân 31 tuổi">
  <defs>
    <linearGradient id="bg" x1="0" y1="0" x2="1" y2="1">
      <stop stop-color="#fff0c8"/>
      <stop offset="1" stop-color="#8c5638"/>
    </linearGradient>
    <linearGradient id="hair" x1="0" y1="0" x2="1" y2="1">
      <stop stop-color="#1e1512"/>
      <stop offset="1" stop-color="#4b2b22"/>
    </linearGradient>
  </defs>
  <rect width="120" height="120" rx="60" fill="url(#bg)"/>
  <path d="M25 69c2-33 15-51 36-51 20 0 34 17 35 51 1 19-8 32-18 38H42C32 101 24 88 25 69Z" fill="url(#hair)"/>
  <path d="M39 62c0-19 9-32 22-32 14 0 24 13 24 32 0 18-10 32-23 32S39 80 39 62Z" fill="#f3c2a0"/>
  <path d="M36 58c12-2 25-12 30-24 5 12 12 18 21 21-2-18-12-29-27-29-14 0-24 12-24 32Z" fill="url(#hair)"/>
  <path d="M47 61h10M67 61h10" stroke="#4a2b22" stroke-width="2.2" stroke-linecap="round"/>
  <circle cx="52" cy="64" r="2.5" fill="#20120e"/>
  <circle cx="72" cy="64" r="2.5" fill="#20120e"/>
  <path d="M55 78c4 3 10 3 14 0" fill="none" stroke="#9d4d47" stroke-width="3" stroke-linecap="round"/>
  <path d="M39 106c4-16 15-25 23-25s19 9 23 25" fill="#fff4dd"/>
  <circle cx="37" cy="67" r="4" fill="#f3c2a0"/>
  <circle cx="86" cy="67" r="4" fill="#f3c2a0"/>
  <circle cx="86" cy="35" r="7" fill="#f4d28b"/>
  <text x="60" y="106" text-anchor="middle" font-family="Arial, sans-serif" font-size="13" font-weight="800" fill="#7d4b32">NH</text>
</svg>
