<svg xmlns="http://www.w3.org/2000/svg" viewBox="0 0 120 120" role="img" aria-label="Thảo Vy 25 tuổi">
  <defs>
    <linearGradient id="bg" x1="0" y1="0" x2="1" y2="1">
      <stop stop-color="#fff4d6"/>
      <stop offset="1" stop-color="#c18a50"/>
    </linearGradient>
    <linearGradient id="hair" x1="0" y1="0" x2="1" y2="1">
      <stop stop-color="#46261c"/>
      <stop offset="1" stop-color="#855437"/>
    </linearGradient>
  </defs>
  <rect width="120" height="120" rx="60" fill="url(#bg)"/>
  <path d="M31 63c0-27 14-43 31-43 18 0 31 15 31 43 0 20-8 34-18 41H48C38 97 31 83 31 63Z" fill="url(#hair)"/>
  <path d="M41 61c0-17 8-30 21-30s22 13 22 30c0 18-9 31-22 31S41 79 41 61Z" fill="#f5c4a6"/>
  <path d="M38 54c9-1 18-6 24-17 7 10 15 15 23 17-2-16-11-27-24-27-14 0-22 11-23 27Z" fill="url(#hair)"/>
  <circle cx="52" cy="62" r="2.5" fill="#2f1b14"/>
  <circle cx="72" cy="62" r="2.5" fill="#2f1b14"/>
  <path d="M55 76c4 3 10 3 14 0" fill="none" stroke="#a04445" stroke-width="3" stroke-linecap="round"/>
  <path d="M42 105c5-14 14-22 20-22s16 8 21 22" fill="#fff1d2"/>
  <path d="M84 38l10-7 2 11" fill="#f4d28b"/>
  <circle cx="37" cy="66" r="4" fill="#f5c4a6"/>
  <circle cx="86" cy="66" r="4" fill="#f5c4a6"/>
  <text x="60" y="106" text-anchor="middle" font-family="Arial, sans-serif" font-size="13" font-weight="800" fill="#7d4b32">TV</text>
</svg>
