<svg xmlns="http://www.w3.org/2000/svg" viewBox="0 0 120 120" role="img" aria-label="Hồng Liên 52 tuổi">
  <defs>
    <linearGradient id="bg" x1="0" y1="0" x2="1" y2="1">
      <stop stop-color="#fff0c2"/>
      <stop offset="1" stop-color="#8b5639"/>
    </linearGradient>
    <linearGradient id="hair" x1="0" y1="0" x2="1" y2="1">
      <stop stop-color="#3b2a24"/>
      <stop offset="1" stop-color="#8b786f"/>
    </linearGradient>
  </defs>
  <rect width="120" height="120" rx="60" fill="url(#bg)"/>
  <path d="M29 66c0-29 14-46 32-46 20 0 33 17 33 46 0 21-8 34-19 40H46C36 100 29 87 29 66Z" fill="url(#hair)"/>
  <path d="M40 62c0-18 9-31 22-31s23 13 23 31c0 19-10 34-23 34S40 81 40 62Z" fill="#e9b793"/>
  <path d="M38 55c10-3 18-10 24-22 6 10 14 17 23 20-2-16-12-27-24-27-13 0-22 11-23 29Z" fill="url(#hair)"/>
  <path d="M47 60h12M66 60h12" stroke="#493026" stroke-width="2.4" stroke-linecap="round"/>
  <circle cx="53" cy="64" r="2.2" fill="#241713"/>
  <circle cx="72" cy="64" r="2.2" fill="#241713"/>
  <path d="M50 70c2 2 5 3 8 2M67 72c3 1 6 0 8-2" stroke="#c78d75" stroke-width="1.5" stroke-linecap="round" opacity=".8"/>
  <path d="M55 80c4 2.5 10 2.5 14 0" fill="none" stroke="#884442" stroke-width="2.6" stroke-linecap="round"/>
  <path d="M39 107c5-15 16-24 23-24s18 9 23 24" fill="#fff1d8"/>
  <circle cx="37" cy="67" r="4" fill="#e9b793"/>
  <circle cx="87" cy="67" r="4" fill="#e9b793"/>
  <path d="M43 50c9-9 28-13 40-1" stroke="#bca99b" stroke-width="4" stroke-linecap="round" opacity=".55"/>
  <text x="60" y="106" text-anchor="middle" font-family="Arial, sans-serif" font-size="13" font-weight="800" fill="#7d4b32">HL</text>
</svg>
