<svg xmlns="http://www.w3.org/2000/svg" viewBox="0 0 120 120" role="img" aria-label="Bảo Trâm 34 tuổi">
  <defs>
    <linearGradient id="bg" x1="0" y1="0" x2="1" y2="1">
      <stop stop-color="#ffe6ad"/>
      <stop offset="1" stop-color="#754631"/>
    </linearGradient>
    <linearGradient id="hair" x1="0" y1="0" x2="1" y2="1">
      <stop stop-color="#2e1b15"/>
      <stop offset="1" stop-color="#5d3527"/>
    </linearGradient>
  </defs>
  <rect width="120" height="120" rx="60" fill="url(#bg)"/>
  <path d="M28 66c0-31 15-47 34-47 21 0 34 17 34 47 0 21-9 34-20 40H44C34 100 28 87 28 66Z" fill="url(#hair)"/>
  <path d="M40 61c0-18 9-31 22-31 14 0 23 13 23 31 0 19-10 33-23 33S40 80 40 61Z" fill="#f0bd99"/>
  <path d="M37 56c9-4 17-13 21-24 8 10 17 17 28 21-3-17-13-28-25-28-13 0-23 12-24 31Z" fill="url(#hair)"/>
  <path d="M49 60c4-2 7-2 10 0M67 60c4-2 7-2 10 0" stroke="#3c231a" stroke-width="2" stroke-linecap="round"/>
  <circle cx="53" cy="64" r="2.4" fill="#21130f"/>
  <circle cx="72" cy="64" r="2.4" fill="#21130f"/>
  <path d="M55 78c4 3 10 3 14 0" fill="none" stroke="#9a4845" stroke-width="3" stroke-linecap="round"/>
  <path d="M40 106c5-15 15-24 22-24s17 9 22 24" fill="#fff4dd"/>
  <circle cx="38" cy="66" r="4" fill="#f0bd99"/>
  <circle cx="87" cy="66" r="4" fill="#f0bd99"/>
  <path d="M38 84c6 8 15 12 25 12 10 0 18-4 25-12" fill="none" stroke="#fff1d5" stroke-width="4" opacity=".5"/>
  <text x="60" y="106" text-anchor="middle" font-family="Arial, sans-serif" font-size="13" font-weight="800" fill="#7d4b32">BT</text>
</svg>
