<svg xmlns="http://www.w3.org/2000/svg" viewBox="0 0 120 120" role="img" aria-label="Thu Dung 61 tuổi">
  <defs>
    <linearGradient id="bg" x1="0" y1="0" x2="1" y2="1">
      <stop stop-color="#fff4d6"/>
      <stop offset="1" stop-color="#7f4d35"/>
    </linearGradient>
    <linearGradient id="hair" x1="0" y1="0" x2="1" y2="1">
      <stop stop-color="#b9afa6"/>
      <stop offset="1" stop-color="#5a4b43"/>
    </linearGradient>
  </defs>
  <rect width="120" height="120" rx="60" fill="url(#bg)"/>
  <path d="M28 67c0-30 14-47 34-47 19 0 33 17 33 47 0 20-8 34-19 40H44C34 101 28 87 28 67Z" fill="url(#hair)"/>
  <path d="M40 63c0-18 9-31 22-31 14 0 23 13 23 31 0 20-10 35-23 35S40 83 40 63Z" fill="#e5b18f"/>
  <path d="M37 55c10-4 17-11 23-23 7 11 15 18 26 21-3-17-12-28-25-28-13 0-23 12-24 30Z" fill="url(#hair)"/>
  <circle cx="53" cy="64" r="2.2" fill="#241713"/>
  <circle cx="72" cy="64" r="2.2" fill="#241713"/>
  <path d="M45 61c5-5 12-5 17 0M64 61c5-5 12-5 17 0" fill="none" stroke="#7b5a4e" stroke-width="2"/>
  <path d="M45 61h36" stroke="#7b5a4e" stroke-width="1.8" opacity=".75"/>
  <path d="M50 72c2 2 5 3 8 2M67 74c3 1 6 0 8-2" stroke="#c58c73" stroke-width="1.5" stroke-linecap="round" opacity=".9"/>
  <path d="M55 81c4 2 10 2 14 0" fill="none" stroke="#864441" stroke-width="2.5" stroke-linecap="round"/>
  <path d="M39 108c5-16 16-25 23-25s18 9 23 25" fill="#fff0cf"/>
  <circle cx="37" cy="68" r="4" fill="#e5b18f"/>
  <circle cx="88" cy="68" r="4" fill="#e5b18f"/>
  <path d="M44 45c9-10 27-13 38-1" stroke="#eee1d1" stroke-width="4" stroke-linecap="round" opacity=".62"/>
  <text x="60" y="107" text-anchor="middle" font-family="Arial, sans-serif" font-size="13" font-weight="800" fill="#7d4b32">TD</text>
</svg>
