<svg xmlns="http://www.w3.org/2000/svg" viewBox="0 0 1200 630" role="img" aria-labelledby="t d"><title id="t">Minh họa lịch gội đầu phù hợp</title><desc id="d">Cô gái thư giãn với tóc được chăm sóc, lịch tuần và lá thảo mộc.</desc><defs><linearGradient id="a" x1="0" x2="1" y1="0" y2="1"><stop stop-color="#fff3dc"/><stop offset="1" stop-color="#e4b46b"/></linearGradient><linearGradient id="b"><stop stop-color="#6d3511"/><stop offset="1" stop-color="#b97832"/></linearGradient></defs><rect width="1200" height="630" fill="url(#a)"/><circle cx="955" cy="110" r="170" fill="#fff8ea" opacity=".65"/><path d="M0 500Q260 400 510 505T1200 465V630H0Z" fill="#5e3010" opacity=".12"/><g fill="#fff9ed" stroke="#b87934" stroke-width="5"><rect x="90" y="100" width="365" height="360" rx="34"/><path d="M90 185h365"/></g><g fill="#814313" font-family="Arial" font-weight="700" text-anchor="middle"><text x="150" y="155" font-size="32">T2</text><text x="225" y="155" font-size="32">T3</text><text x="300" y="155" font-size="32">T4</text><text x="375" y="155" font-size="32">T5</text><text x="150" y="245" font-size="28">GỘI</text><text x="300" y="325" font-size="28">NGHỈ</text></g><g fill="#d69b4e"><circle cx="150" cy="285" r="24"/><circle cx="375" cy="370" r="24"/></g><g transform="translate(535 65)"><ellipse cx="260" cy="460" rx="250" ry="70" fill="#b97832" opacity=".27"/><path d="M180 415c-83-43-90-152-35-220 31-39 88-45 126-13 36-34 101-28 135 14 55 67 48 176-39 219-56 28-131 28-187 0z" fill="url(#b)"/><circle cx="272" cy="225" r="120" fill="#e6ae75"/><path d="M160 230c5-122 211-167 235-29-57-28-116-17-170 28z" fill="#4d260f"/><path d="M172 260c35 77 167 103 204-6 15 105-29 182-103 182-78 0-118-81-101-176z" fill="#4d260f"/><path d="M207 258q20 15 40 0M303 258q20 15 40 0M247 323q28 22 56 0" fill="none" stroke="#65310f" stroke-width="9" stroke-linecap="round"/><path d="M76 134c38-30 79-15 94 10-30 25-70 25-94-10zm16 105c-16-39 7-79 39-86 11 38-2 73-39 86zM456 96c38-30 79-15 94 10-30 25-70 25-94-10z" fill="#78a26a"/></g></svg>
