<svg xmlns="http://www.w3.org/2000/svg" viewBox="0 0 1200 630" role="img" aria-labelledby="t d"><title id="t">Minh họa chọn dầu gội theo da đầu</title><desc id="d">Các chai dầu gội, chiếc lá và hình mái tóc được chăm sóc.</desc><defs><linearGradient id="a" x1="0" y1="0" x2="1" y2="1"><stop stop-color="#fff6e7"/><stop offset="1" stop-color="#d99a4e"/></linearGradient></defs><rect width="1200" height="630" fill="url(#a)"/><circle cx="185" cy="155" r="120" fill="#fffdf5" opacity=".8"/><g transform="translate(100 130)"><rect x="0" y="80" width="220" height="290" rx="34" fill="#fff9ec" stroke="#a35e20" stroke-width="7"/><rect x="56" y="0" width="108" height="110" rx="22" fill="#6b3511"/><path d="M72 190h76M72 235h76M72 280h76" stroke="#c68139" stroke-width="13" stroke-linecap="round"/><text x="110" y="335" fill="#693510" font-family="Arial" font-size="25" font-weight="700" text-anchor="middle">DỊU NHẸ</text></g><g transform="translate(380 90)"><rect x="0" y="130" width="250" height="330" rx="40" fill="#6b3511"/><rect x="66" y="0" width="118" height="160" rx="25" fill="#f6cb78"/><path d="M74 250h102M74 300h102M74 350h102" stroke="#f7d89c" stroke-width="15" stroke-linecap="round"/><text x="125" y="420" fill="#fff6e5" font-family="Arial" font-size="25" font-weight="700" text-anchor="middle">CÂN BẰNG</text></g><g transform="translate(745 75)"><circle cx="155" cy="240" r="135" fill="#ebb779"/><path d="M46 232c15-160 234-163 256 3-85-58-170-48-256-3z" fill="#4e270f"/><path d="M73 280c14 105 158 147 215 12-8 131-69 184-137 184-73 0-118-67-78-196z" fill="#4e270f"/><path d="M117 330q40 32 80 0" fill="none" stroke="#6c3714" stroke-width="9" stroke-linecap="round"/><path d="M-4 85c40-39 91-26 112 7-38 31-82 28-112-7zm246 9c36-36 84-28 105-1-32 32-76 34-105 1z" fill="#76a066"/></g></svg>
